<?xml version="1.0" standalone="no"?><!DOCTYPE svg PUBLIC "-//W3C//DTD SVG 1.1//EN" "http://www.w3.org/Graphics/SVG/1.1/DTD/svg11.dtd"><svg t="1710271564886" class="icon" viewBox="0 0 1024 1024" version="1.1" xmlns="http://www.w3.org/2000/svg" p-id="5570" xmlns:xlink="http://www.w3.org/1999/xlink" width="200" height="200"><path d="M511.929949 507.960956m-507.960957 0a507.960956 507.960956 0 1 0 1015.921913 0 507.960956 507.960956 0 1 0-1015.921913 0Z" fill="#EAEAEA" p-id="5571"></path><path d="M431.211778 752.496536L245.72666 785.752104s-94.210884 21.985185-111.116459 82.623025c27.699746 27.541008 188.263029 170.88124 387.637705 154.29314 207.70841 0 299.062013-88.178847 354.461504-154.29314-38.732023-49.605562-30.477657-82.623024-279.696001-110.243402-171.357454-5.635192-165.801631-5.635192-165.801631-5.635191z" fill="#D1D1D1" p-id="5572"></path><path d="M298.268871 450.974087s-55.55823 0-33.1762 59.447305c22.143923 43.176681 55.55823 32.382511 55.55823 32.382511S303.824694 666.698755 425.655955 710.192912v53.970852s-11.032277 108.021072 83.099238 137.70504c27.699746 2.698543 71.987592-37.779596 77.543414-126.990239v-64.685653a228.264955 228.264955 0 0 0 110.719615-161.991924c11.111646-5.397085 55.55823-21.588341 49.843669-64.84439s-33.1762-37.779596-55.55823 0c22.143923-102.544618 0-226.756946 0-226.756946s-310.173659-21.588341-343.429227 0-49.605562 194.374435-49.605563 194.374435z" fill="#F9F9F9" p-id="5573"></path><path d="M317.714252 481.134268s-94.210884-199.374675 33.1762-293.664928 138.49873-11.111646 216.042144-77.543414c5.476454 5.555823-5.555823 22.143923-5.555823 22.143923a55.55823 55.55823 0 0 0 33.1762-27.699746c0 5.555823 5.555823 33.255569 0 44.287846 0 0 11.111646 0 16.667469-22.143923 5.555823 16.667469 105.163792 55.55823 116.275438 160.642652a390.653723 390.653723 0 0 1-27.699746 188.26303l-2.777912-135.64145s-11.032277-44.367215-38.732023-49.843668-66.431769 5.476454-77.543415 16.5881-132.942907 5.555823-166.119106-16.5881-88.655061-5.555823-94.131515 60.875946a1166.167239 1166.167239 0 0 0-2.777911 130.323732zM511.929949 680.191468h-1.190534c-27.937853-0.71432-46.90702-26.985426-47.62134-28.09659a8.333734 8.333734 0 0 1 13.572082-9.683006s15.15946 20.715283 34.684209 21.191496H511.929949c11.587859 0 23.175719-7.22257 34.446102-21.508972A7.93689 7.93689 0 0 1 559.551288 652.412353c-14.524509 18.413585-30.477657 27.779115-47.621339 27.779115z" fill="#D1D1D1" p-id="5574"></path></svg>